ffmpeg started on 2025-06-03 at 20:18:17
Report written to "D:\Convert\FFMetrics\reports\ssim_report-6.txt"
Log level: 32
Command line:
ffmpeg -hide_banner -nostdin -i "G:\\\xc0\xed\xe8\xec\xe5\\\xce\xed\xe3\xee\xe8\xed\xe3\xe8\\!_36_\xce\xf1\xe5\xed\xfc_2024\\DreamCast\\\xc1\xe0\xf8\xed\xff \xc1\xee\xe3\xe0\\\xd2\xc2-2\\[DC] Kami no Tou - Ouji no Kikan - 25_Telegram_HEVC.mkv" -i "G:\\\xc0\xed\xe8\xec\xe5\\\xce\xed\xe3\xee\xe8\xed\xe3\xe8\\!_36_\xce\xf1\xe5\xed\xfc_2024\\DreamCast\\\xc1\xe0\xf8\xed\xff \xc1\xee\xe3\xe0\\\xd2\xc2-2\\[DC] Kami no Tou - Ouji no Kikan - 25_Telegram.mp4" -lavfi "[0:v]settb=AVTB,setpts=PTS-STARTPTS,format=pix_fmts=yuv420p10,fps=24000/1001,scale=1920:1080:flags=bicubic[main];[1:v]settb=AVTB,setpts=PTS-STARTPTS,format=pix_fmts=yuv420p,fps=24000/1001,scale=1920:1080:flags=bicubic[ref];[main][ref]ssim=eof_action=endall:stats_file='D\\:/Convert/FFMetrics/logs/ssim_logfile-6.txt'" -f null -
Input #0, matroska,webm, from 'G:\Аниме\Онгоинги\!_36_Осень_2024\DreamCast\Башня Бога\ТВ-2\[DC] Kami no Tou - Ouji no Kikan - 25_Telegram_HEVC.mkv':
  Metadata:
    COMPATIBLE_BRANDS: isomiso2avc1mp41
    MAJOR_BRAND     : isom
    MINOR_VERSION   : 512
    ENCODER         : Lavf61.7.100
  Duration: 00:23:49.42, start: -0.021000, bitrate: 1197 kb/s
  Chapters:
    Chapter #0:0: start 0.000000, end 169.000000
      Metadata:
        title           : 
    Chapter #0:1: start 169.000000, end 259.000000
      Metadata:
        title           : 
    Chapter #0:2: start 259.000000, end 1325.000000
      Metadata:
        title           : 
    Chapter #0:3: start 1325.000000, end 1416.000000
      Metadata:
        title           : 
    Chapter #0:4: start 1416.000000, end 1421.000000
      Metadata:
        title           : 
    Chapter #0:5: start 1421.000000, end 1429.393000
      Metadata:
        title           : 
  Stream #0:0: Video: hevc (Main 10), yuv420p10le(tv, bt709, progressive), 1920x1080 [SAR 1:1 DAR 16:9], 23.98 fps, 23.98 tbr, 1k tbn (default)
      Metadata:
        HANDLER_NAME    : VideoHandler
        VENDOR_ID       : [0][0][0][0]
        ENCODER         : Lavc61.19.100 libx265
        BPS             : 1001510
        DURATION        : 00:23:47.592708333
        NUMBER_OF_FRAMES: 34228
        NUMBER_OF_BYTES : 178718523
        _STATISTICS_WRITING_APP: mkvpropedit v66.0.0 ('Josie') 64-bit
        _STATISTICS_WRITING_DATE_UTC: 2025-05-30 06:49:20
        _STATISTICS_TAGS: BPS DURATION NUMBER_OF_FRAMES NUMBER_OF_BYTES
  Stream #0:1: Audio: aac (LC), 48000 Hz, stereo, fltp (default)
      Metadata:
        HANDLER_NAME    : SoundHandler
        VENDOR_ID       : [0][0][0][0]
        ENCODER         : Lavc61.19.100 aac
        BPS             : 193625
        DURATION        : 00:23:49.418000000
        NUMBER_OF_FRAMES: 67005
        NUMBER_OF_BYTES : 34596506
        _STATISTICS_WRITING_APP: mkvpropedit v66.0.0 ('Josie') 64-bit
        _STATISTICS_WRITING_DATE_UTC: 2025-05-30 06:49:20
        _STATISTICS_TAGS: BPS DURATION NUMBER_OF_FRAMES NUMBER_OF_BYTES
[mov,mp4,m4a,3gp,3g2,mj2 @ 000001d4bc782780] Referenced QT chapter track not found
Input #1, mov,mp4,m4a,3gp,3g2,mj2, from 'G:\Аниме\Онгоинги\!_36_Осень_2024\DreamCast\Башня Бога\ТВ-2\[DC] Kami no Tou - Ouji no Kikan - 25_Telegram.mp4':
  Metadata:
    major_brand     : isom
    minor_version   : 512
    compatible_brands: isomiso2avc1mp41
    encoder         : Lavf61.7.100
  Duration: 00:23:49.39, start: 0.000000, bitrate: 3703 kb/s
  Chapters:
    Chapter #1:0: start 0.000000, end 169.000000
      Metadata:
        title           : 
    Chapter #1:1: start 169.000000, end 259.000000
      Metadata:
        title           : 
    Chapter #1:2: start 259.000000, end 1325.000000
      Metadata:
        title           : 
    Chapter #1:3: start 1325.000000, end 1416.000000
      Metadata:
        title           : 
    Chapter #1:4: start 1416.000000, end 1421.000000
      Metadata:
        title           : 
    Chapter #1:5: start 1421.000000, end 1429.393000
      Metadata:
        title           : 
  Stream #1:0[0x1](und): Video: h264 (High) (avc1 / 0x31637661), yuv420p(tv, bt709, progressive), 1920x1080 [SAR 1:1 DAR 16:9], 3560 kb/s, 23.98 fps, 23.98 tbr, 24k tbn (default)
      Metadata:
        handler_name    : VideoHandler
        vendor_id       : [0][0][0][0]
        encoder         : Lavc61.19.101 h264_qsv
  Stream #1:1[0x2](und): Audio: aac (HE-AACv2) (mp4a / 0x6134706D), 48000 Hz, stereo, fltp, 144 kb/s (default)
      Metadata:
        handler_name    : SoundHandler
        vendor_id       : [0][0][0][0]
Stream mapping:
  Stream #0:0 (hevc) -> settb:default
  Stream #1:0 (h264) -> settb:default
  ssim:default -> Stream #0:0 (wrapped_avframe)
  Stream #0:1 -> #0:1 (aac (native) -> pcm_s16le (native))
Output #0, null, to 'pipe:':
  Metadata:
    COMPATIBLE_BRANDS: isomiso2avc1mp41
    MAJOR_BRAND     : isom
    MINOR_VERSION   : 512
    encoder         : Lavf61.7.100
  Chapters:
    Chapter #0:0: start 0.021000, end 169.021000
      Metadata:
        title           : 
    Chapter #0:1: start 169.021000, end 259.021000
      Metadata:
        title           : 
    Chapter #0:2: start 259.021000, end 1325.021000
      Metadata:
        title           : 
    Chapter #0:3: start 1325.021000, end 1416.021000
      Metadata:
        title           : 
    Chapter #0:4: start 1416.021000, end 1421.021000
      Metadata:
        title           : 
    Chapter #0:5: start 1421.021000, end 1429.414000
      Metadata:
        title           : 
  Stream #0:0: Video: wrapped_avframe, yuv420p10le(tv, bt709, progressive), 1920x1080 [SAR 1:1 DAR 16:9], q=2-31, 200 kb/s, 23.98 fps, 23.98 tbn
      Metadata:
        encoder         : Lavc61.19.100 wrapped_avframe
  Stream #0:1: Audio: pcm_s16le, 48000 Hz, stereo, s16, 1536 kb/s (default)
      Metadata:
        HANDLER_NAME    : SoundHandler
        VENDOR_ID       : [0][0][0][0]
        _STATISTICS_TAGS: BPS DURATION NUMBER_OF_FRAMES NUMBER_OF_BYTES
        BPS             : 193625
        DURATION        : 00:23:49.418000000
        NUMBER_OF_FRAMES: 67005
        NUMBER_OF_BYTES : 34596506
        _STATISTICS_WRITING_APP: mkvpropedit v66.0.0 ('Josie') 64-bit
        _STATISTICS_WRITING_DATE_UTC: 2025-05-30 06:49:20
        encoder         : Lavc61.19.100 pcm_s16le
frame=  199 fps=0.0 q=-0.0 size=N/A time=00:00:08.29 bitrate=N/A speed=15.8x    frame=  484 fps=467 q=-0.0 size=N/A time=00:00:20.18 bitrate=N/A speed=19.5x    frame=  781 fps=505 q=-0.0 size=N/A time=00:00:32.57 bitrate=N/A speed=21.1x    frame= 1053 fps=508 q=-0.0 size=N/A time=00:00:43.91 bitrate=N/A speed=21.2x    frame= 1327 fps=513 q=-0.0 size=N/A time=00:00:55.34 bitrate=N/A speed=21.4x    frame= 1604 fps=518 q=-0.0 size=N/A time=00:01:06.90 bitrate=N/A speed=21.6x    frame= 1876 fps=521 q=-0.0 size=N/A time=00:01:18.24 bitrate=N/A speed=21.7x    frame= 2156 fps=522 q=-0.0 size=N/A time=00:01:29.92 bitrate=N/A speed=21.8x    frame= 2392 fps=515 q=-0.0 size=N/A time=00:01:39.76 bitrate=N/A speed=21.5x    frame= 2636 fps=511 q=-0.0 size=N/A time=00:01:49.94 bitrate=N/A speed=21.3x    frame= 2899 fps=511 q=-0.0 size=N/A time=00:02:00.91 bitrate=N/A speed=21.3x    frame= 3178 fps=514 q=-0.0 size=N/A time=00:02:12.54 bitrate=N/A speed=21.4x    frame= 3474 fps=518 q=-0.0 size=N/A time=00:02:24.89 bitrate=N/A speed=21.6x    frame= 3783 fps=523 q=-0.0 size=N/A time=00:02:37.78 bitrate=N/A speed=21.8x    frame= 4057 fps=524 q=-0.0 size=N/A time=00:02:49.21 bitrate=N/A speed=21.8x    frame= 4305 fps=520 q=-0.0 size=N/A time=00:02:59.55 bitrate=N/A speed=21.7x    frame= 4535 fps=516 q=-0.0 size=N/A time=00:03:09.14 bitrate=N/A speed=21.5x    frame= 4773 fps=513 q=-0.0 size=N/A time=00:03:19.07 bitrate=N/A speed=21.4x    frame= 5008 fps=510 q=-0.0 size=N/A time=00:03:28.87 bitrate=N/A speed=21.3x    frame= 5237 fps=507 q=-0.0 size=N/A time=00:03:38.42 bitrate=N/A speed=21.1x    frame= 5509 fps=508 q=-0.0 size=N/A time=00:03:49.77 bitrate=N/A speed=21.2x    frame= 5733 fps=505 q=-0.0 size=N/A time=00:03:59.11 bitrate=N/A speed=  21x    frame= 5950 fps=501 q=-0.0 size=N/A time=00:04:08.16 bitrate=N/A speed=20.9x    frame= 6163 fps=497 q=-0.0 size=N/A time=00:04:17.04 bitrate=N/A speed=20.7x    frame= 6399 fps=496 q=-0.0 size=N/A time=00:04:26.89 bitrate=N/A speed=20.7x    frame= 6677 fps=497 q=-0.0 size=N/A time=00:04:38.48 bitrate=N/A speed=20.7x    frame= 6950 fps=499 q=-0.0 size=N/A time=00:04:49.87 bitrate=N/A speed=20.8x    frame= 7224 fps=500 q=-0.0 size=N/A time=00:05:01.30 bitrate=N/A speed=20.9x    frame= 7514 fps=502 q=-0.0 size=N/A time=00:05:13.39 bitrate=N/A speed=20.9x    frame= 7792 fps=503 q=-0.0 size=N/A time=00:05:24.99 bitrate=N/A speed=  21x    frame= 8068 fps=504 q=-0.0 size=N/A time=00:05:36.50 bitrate=N/A speed=  21x    frame= 8296 fps=502 q=-0.0 size=N/A time=00:05:46.01 bitrate=N/A speed=20.9x    frame= 8528 fps=501 q=-0.0 size=N/A time=00:05:55.68 bitrate=N/A speed=20.9x    frame= 8773 fps=500 q=-0.0 size=N/A time=00:06:05.90 bitrate=N/A speed=20.8x    frame= 9047 fps=501 q=-0.0 size=N/A time=00:06:17.33 bitrate=N/A speed=20.9x    frame= 9304 fps=501 q=-0.0 size=N/A time=00:06:28.05 bitrate=N/A speed=20.9x    frame= 9580 fps=502 q=-0.0 size=N/A time=00:06:39.56 bitrate=N/A speed=20.9x    frame= 9828 fps=501 q=-0.0 size=N/A time=00:06:49.90 bitrate=N/A speed=20.9x    frame=10083 fps=501 q=-0.0 size=N/A time=00:07:00.54 bitrate=N/A speed=20.9x    frame=10365 fps=502 q=-0.0 size=N/A time=00:07:12.30 bitrate=N/A speed=20.9x    frame=10639 fps=503 q=-0.0 size=N/A time=00:07:23.73 bitrate=N/A speed=  21x    frame=10913 fps=503 q=-0.0 size=N/A time=00:07:35.16 bitrate=N/A speed=  21x    frame=11194 fps=504 q=-0.0 size=N/A time=00:07:46.88 bitrate=N/A speed=  21x    frame=11475 fps=505 q=-0.0 size=N/A time=00:07:58.60 bitrate=N/A speed=21.1x    frame=11728 fps=505 q=-0.0 size=N/A time=00:08:09.15 bitrate=N/A speed=21.1x    frame=11940 fps=503 q=-0.0 size=N/A time=00:08:17.99 bitrate=N/A speed=  21x    frame=12166 fps=502 q=-0.0 size=N/A time=00:08:27.42 bitrate=N/A speed=20.9x    frame=12435 fps=502 q=-0.0 size=N/A time=00:08:38.64 bitrate=N/A speed=20.9x    frame=12677 fps=501 q=-0.0 size=N/A time=00:08:48.73 bitrate=N/A speed=20.9x    frame=12934 fps=501 q=-0.0 size=N/A time=00:08:59.45 bitrate=N/A speed=20.9x    frame=13185 fps=501 q=-0.0 size=N/A time=00:09:09.92 bitrate=N/A speed=20.9x    frame=13462 fps=502 q=-0.0 size=N/A time=00:09:21.47 bitrate=N/A speed=20.9x    frame=13720 fps=502 q=-0.0 size=N/A time=00:09:32.23 bitrate=N/A speed=20.9x    frame=13967 fps=501 q=-0.0 size=N/A time=00:09:42.54 bitrate=N/A speed=20.9x    frame=14213 fps=501 q=-0.0 size=N/A time=00:09:52.80 bitrate=N/A speed=20.9x    frame=14462 fps=501 q=-0.0 size=N/A time=00:10:03.18 bitrate=N/A speed=20.9x    frame=14712 fps=500 q=-0.0 size=N/A time=00:10:13.61 bitrate=N/A speed=20.9x    frame=15008 fps=502 q=-0.0 size=N/A time=00:10:25.95 bitrate=N/A speed=20.9x    frame=15283 fps=502 q=-0.0 size=N/A time=00:10:37.42 bitrate=N/A speed=20.9x    frame=15568 fps=503 q=-0.0 size=N/A time=00:10:49.31 bitrate=N/A speed=  21x    frame=15857 fps=504 q=-0.0 size=N/A time=00:11:01.36 bitrate=N/A speed=  21x    frame=16115 fps=504 q=-0.0 size=N/A time=00:11:12.12 bitrate=N/A speed=  21x    frame=16330 fps=502 q=-0.0 size=N/A time=00:11:21.09 bitrate=N/A speed=  21x    frame=16562 fps=502 q=-0.0 size=N/A time=00:11:30.77 bitrate=N/A speed=20.9x    frame=16834 fps=502 q=-0.0 size=N/A time=00:11:42.11 bitrate=N/A speed=20.9x    frame=17131 fps=503 q=-0.0 size=N/A time=00:11:54.50 bitrate=N/A speed=  21x    frame=17416 fps=504 q=-0.0 size=N/A time=00:12:06.39 bitrate=N/A speed=  21x    frame=17698 fps=504 q=-0.0 size=N/A time=00:12:18.15 bitrate=N/A speed=  21x    frame=17962 fps=505 q=-0.0 size=N/A time=00:12:29.16 bitrate=N/A speed=  21x    frame=18224 fps=505 q=-0.0 size=N/A time=00:12:40.09 bitrate=N/A speed=21.1x    frame=18506 fps=505 q=-0.0 size=N/A time=00:12:51.85 bitrate=N/A speed=21.1x    frame=18776 fps=506 q=-0.0 size=N/A time=00:13:03.11 bitrate=N/A speed=21.1x    frame=19028 fps=505 q=-0.0 size=N/A time=00:13:13.62 bitrate=N/A speed=21.1x    frame=19302 fps=506 q=-0.0 size=N/A time=00:13:25.05 bitrate=N/A speed=21.1x    frame=19580 fps=506 q=-0.0 size=N/A time=00:13:36.64 bitrate=N/A speed=21.1x    frame=19855 fps=507 q=-0.0 size=N/A time=00:13:48.11 bitrate=N/A speed=21.1x    frame=20144 fps=507 q=-0.0 size=N/A time=00:14:00.17 bitrate=N/A speed=21.1x    frame=20414 fps=507 q=-0.0 size=N/A time=00:14:11.43 bitrate=N/A speed=21.2x    frame=20714 fps=508 q=-0.0 size=N/A time=00:14:23.94 bitrate=N/A speed=21.2x    frame=21016 fps=509 q=-0.0 size=N/A time=00:14:36.54 bitrate=N/A speed=21.2x    frame=21303 fps=510 q=-0.0 size=N/A time=00:14:48.51 bitrate=N/A speed=21.3x    frame=21551 fps=510 q=-0.0 size=N/A time=00:14:58.85 bitrate=N/A speed=21.3x    frame=21719 fps=507 q=-0.0 size=N/A time=00:15:05.86 bitrate=N/A speed=21.2x    frame=21967 fps=507 q=-0.0 size=N/A time=00:15:16.20 bitrate=N/A speed=21.1x    frame=22258 fps=508 q=-0.0 size=N/A time=00:15:28.34 bitrate=N/A speed=21.2x    frame=22536 fps=508 q=-0.0 size=N/A time=00:15:39.93 bitrate=N/A speed=21.2x    frame=22773 fps=507 q=-0.0 size=N/A time=00:15:49.82 bitrate=N/A speed=21.2x    frame=23036 fps=508 q=-0.0 size=N/A time=00:16:00.79 bitrate=N/A speed=21.2x    frame=23344 fps=508 q=-0.0 size=N/A time=00:16:13.63 bitrate=N/A speed=21.2x    frame=23645 fps=509 q=-0.0 size=N/A time=00:16:26.19 bitrate=N/A speed=21.2x    frame=23936 fps=510 q=-0.0 size=N/A time=00:16:38.33 bitrate=N/A speed=21.3x    frame=24240 fps=511 q=-0.0 size=N/A time=00:16:51.01 bitrate=N/A speed=21.3x    frame=24522 fps=511 q=-0.0 size=N/A time=00:17:02.77 bitrate=N/A speed=21.3x    frame=24746 fps=510 q=-0.0 size=N/A time=00:17:12.11 bitrate=N/A speed=21.3x    frame=24980 fps=510 q=-0.0 size=N/A time=00:17:21.87 bitrate=N/A speed=21.3x    frame=25212 fps=509 q=-0.0 size=N/A time=00:17:31.55 bitrate=N/A speed=21.2x    frame=25488 fps=509 q=-0.0 size=N/A time=00:17:43.06 bitrate=N/A speed=21.2x    frame=25775 fps=510 q=-0.0 size=N/A time=00:17:55.03 bitrate=N/A speed=21.3x    frame=26040 fps=510 q=-0.0 size=N/A time=00:18:06.08 bitrate=N/A speed=21.3x    frame=26329 fps=511 q=-0.0 size=N/A time=00:18:18.13 bitrate=N/A speed=21.3x    frame=26613 fps=511 q=-0.0 size=N/A time=00:18:29.98 bitrate=N/A speed=21.3x    frame=26878 fps=511 q=-0.0 size=N/A time=00:18:41.03 bitrate=N/A speed=21.3x    frame=27069 fps=509 q=-0.0 size=N/A time=00:18:49.00 bitrate=N/A speed=21.2x    frame=27316 fps=509 q=-0.0 size=N/A time=00:18:59.30 bitrate=N/A speed=21.2x    frame=27607 fps=510 q=-0.0 size=N/A time=00:19:11.44 bitrate=N/A speed=21.3x    frame=27889 fps=510 q=-0.0 size=N/A time=00:19:23.20 bitrate=N/A speed=21.3x    frame=28180 fps=511 q=-0.0 size=N/A time=00:19:35.34 bitrate=N/A speed=21.3x    frame=28434 fps=510 q=-0.0 size=N/A time=00:19:45.93 bitrate=N/A speed=21.3x    frame=28705 fps=511 q=-0.0 size=N/A time=00:19:57.23 bitrate=N/A speed=21.3x    frame=28968 fps=511 q=-0.0 size=N/A time=00:20:08.20 bitrate=N/A speed=21.3x    frame=29231 fps=511 q=-0.0 size=N/A time=00:20:19.17 bitrate=N/A speed=21.3x    frame=29427 fps=509 q=-0.0 size=N/A time=00:20:27.35 bitrate=N/A speed=21.2x    frame=29653 fps=509 q=-0.0 size=N/A time=00:20:36.77 bitrate=N/A speed=21.2x    frame=29897 fps=508 q=-0.0 size=N/A time=00:20:46.95 bitrate=N/A speed=21.2x    frame=30135 fps=508 q=-0.0 size=N/A time=00:20:56.88 bitrate=N/A speed=21.2x    frame=30384 fps=508 q=-0.0 size=N/A time=00:21:07.26 bitrate=N/A speed=21.2x    frame=30643 fps=508 q=-0.0 size=N/A time=00:21:18.06 bitrate=N/A speed=21.2x    frame=30916 fps=508 q=-0.0 size=N/A time=00:21:29.45 bitrate=N/A speed=21.2x    frame=31187 fps=508 q=-0.0 size=N/A time=00:21:40.75 bitrate=N/A speed=21.2x    frame=31435 fps=508 q=-0.0 size=N/A time=00:21:51.10 bitrate=N/A speed=21.2x    frame=31667 fps=507 q=-0.0 size=N/A time=00:22:00.77 bitrate=N/A speed=21.2x    frame=31922 fps=507 q=-0.0 size=N/A time=00:22:11.41 bitrate=N/A speed=21.2x    frame=32142 fps=507 q=-0.0 size=N/A time=00:22:20.58 bitrate=N/A speed=21.1x    frame=32313 fps=505 q=-0.0 size=N/A time=00:22:27.72 bitrate=N/A speed=21.1x    frame=32455 fps=503 q=-0.0 size=N/A time=00:22:33.64 bitrate=N/A speed=  21x    frame=32607 fps=502 q=-0.0 size=N/A time=00:22:39.98 bitrate=N/A speed=20.9x    frame=32739 fps=500 q=-0.0 size=N/A time=00:22:45.48 bitrate=N/A speed=20.8x    frame=32895 fps=498 q=-0.0 size=N/A time=00:22:51.99 bitrate=N/A speed=20.8x    frame=33059 fps=497 q=-0.0 size=N/A time=00:22:58.83 bitrate=N/A speed=20.7x    frame=33231 fps=496 q=-0.0 size=N/A time=00:23:06.00 bitrate=N/A speed=20.7x    frame=33381 fps=494 q=-0.0 size=N/A time=00:23:12.26 bitrate=N/A speed=20.6x    frame=33538 fps=493 q=-0.0 size=N/A time=00:23:18.81 bitrate=N/A speed=20.5x    frame=33712 fps=491 q=-0.0 size=N/A time=00:23:26.07 bitrate=N/A speed=20.5x    frame=33854 fps=490 q=-0.0 size=N/A time=00:23:31.99 bitrate=N/A speed=20.4x    frame=34043 fps=489 q=-0.0 size=N/A time=00:23:39.87 bitrate=N/A speed=20.4x    [Parsed_ssim_10 @ 000001d4bc7c9340] SSIM Y:0.994831 (22.865582) U:0.995149 (23.141831) V:0.994872 (22.900582) All:0.994891 (22.916295)
[out#0/null @ 000001d4bcc5de00] video:14707KiB audio:268020KiB subtitle:0KiB other streams:0KiB global headers:0KiB muxing overhead: unknown
frame=34228 fps=489 q=-0.0 Lsize=N/A time=00:23:47.59 bitrate=N/A speed=20.4x    
